<?xml version="1.0" encoding="UTF-8"?>
<!DOCTYPE svg PUBLIC "-//W3C//DTD SVG 1.1//EN" "http://www.w3.org/Graphics/SVG/1.1/DTD/svg11.dtd">
<!-- Creator: CorelDRAW X7 -->
<svg xmlns="http://www.w3.org/2000/svg" xml:space="preserve" width="93.4559mm" height="65.4904mm" version="1.1" style="shape-rendering:geometricPrecision; text-rendering:geometricPrecision; image-rendering:optimizeQuality; fill-rule:evenodd; clip-rule:evenodd"
viewBox="0 0 8287 5807"
 xmlns:xlink="http://www.w3.org/1999/xlink">
 <defs>
  <style type="text/css">
   <![CDATA[
    .fil1 {fill:#5B5B5B}
    .fil2 {fill:#FEFEFE;fill-rule:nonzero}
    .fil0 {fill:#5B5B5B;fill-rule:nonzero}
    .fil3 {fill:#FECC00;fill-rule:nonzero}
   ]]>
  </style>
 </defs>
 <g id="Layer_x0020_1">
  <metadata id="CorelCorpID_0Corel-Layer"/>
  <g id="_2126552066992">
   <polygon class="fil0" points="0,5807 119,5104 299,5104 442,5480 593,5104 775,5104 881,5807 698,5807 647,5403 645,5403 477,5807 404,5807 242,5403 241,5403 182,5807 "/>
   <polygon id="1" class="fil0" points="1455,5104 1455,5807 1272,5807 1272,5104 "/>
   <polygon id="2" class="fil0" points="1887,5807 1887,5104 2070,5104 2405,5534 2406,5534 2406,5104 2589,5104 2589,5807 2406,5807 2072,5377 2070,5377 2070,5807 "/>
   <path id="3" class="fil0" d="M3022 5807l0 -703 259 0c98,1 182,35 252,103 70,68 105,151 105,250 0,99 -35,182 -105,249 -71,68 -155,101 -252,101l-259 0zm182 -548l0 394 41 0c55,0 103,-15 143,-47 40,-31 60,-81 60,-150 0,-63 -19,-111 -56,-145 -37,-35 -86,-52 -145,-52l-43 0z"/>
   <path id="4" class="fil0" d="M4318 5807l-282 0 0 -703 261 0c63,1 113,15 152,42 38,28 57,75 57,142 0,32 -6,60 -17,85 -12,25 -32,44 -60,59l0 1c50,6 86,26 109,58 23,32 34,72 34,122 0,73 -26,124 -79,152 -52,28 -111,42 -175,42zm-99 -290l0 151 23 0c1,0 1,1 2,1 1,0 2,0 4,0 7,0 15,0 23,0 8,0 16,-1 24,-1 23,-2 44,-8 64,-18 19,-10 29,-29 29,-57 0,-31 -11,-52 -32,-61 -21,-10 -44,-15 -69,-15 -6,0 -12,0 -17,0 -6,0 -12,0 -18,0 -2,0 -5,0 -7,0 -3,0 -5,0 -8,0l-18 0zm0 -273l0 136 20 0c1,1 2,1 3,1 1,0 2,0 3,0 23,0 44,-5 64,-13 19,-8 29,-26 29,-55 0,-29 -9,-47 -28,-56 -19,-8 -39,-12 -60,-13 -4,0 -7,0 -9,0 -3,0 -6,0 -9,0l-13 0z"/>
   <polygon id="5" class="fil0" points="5380,5259 5163,5259 5163,5377 5369,5377 5369,5531 5163,5531 5163,5653 5380,5653 5380,5807 4980,5807 4980,5104 5380,5104 "/>
   <path id="6" class="fil0" d="M6170 5519l221 288 -227 0 -173 -270 -2 0 0 270 -183 0 0 -703 274 0c69,1 127,19 174,53 47,35 70,89 70,165 0,48 -13,91 -40,129 -26,37 -64,61 -114,69l0 -1zm-181 -275l0 176 18 0c3,0 6,0 9,0 3,0 6,0 9,0 27,-1 52,-7 75,-19 22,-11 34,-34 34,-68 0,-35 -12,-58 -34,-70 -23,-11 -48,-18 -75,-19 -3,0 -6,0 -9,0 -3,0 -6,0 -9,0l-18 0z"/>
   <path id="7" class="fil0" d="M7117 5519l221 288 -227 0 -173 -270 -2 0 0 270 -182 0 0 -703 273 0c69,1 128,19 174,53 47,35 70,89 70,165 0,48 -13,91 -40,129 -26,37 -64,61 -114,69l0 -1zm-181 -275l0 176 18 0c3,0 6,0 9,0 3,0 6,0 9,0 27,-1 52,-7 75,-19 23,-11 34,-34 34,-68 0,-35 -11,-58 -34,-70 -23,-11 -48,-18 -75,-19 -3,0 -6,0 -9,0 -3,0 -6,0 -9,0l-18 0z"/>
   <polygon id="8" class="fil0" points="7845,5470 7586,5104 7805,5104 7937,5295 8068,5104 8287,5104 8028,5470 8028,5807 7845,5807 "/>
   <g>
    <g>
     <path class="fil1" d="M3048 881c154,37 240,220 192,408 -49,189 -214,311 -368,274 -155,-37 -241,-220 -192,-408 49,-188 213,-311 368,-274z"/>
     <path id="1" class="fil2" d="M3260 1294l-41 -10 0 0 4 -16 3 -16 3 -16 1 -17 1 -16 1 -15 0 -16 -1 -15 -2 -16 -2 -15 -3 -14 -3 -15 -5 -14 -4 -14 -5 -13 -6 -13 -6 -13 -7 -12 -8 -12 -8 -11 -8 -11 -9 -10 -9 -10 -10 -9 -10 -8 -11 -8 -11 -7 -12 -7 -12 -6 -12 -5 -13 -4 -14 -4 13 -50 16 4 15 6 14 5 14 7 13 8 13 8 13 9 12 10 11 11 11 11 10 12 10 12 9 13 9 14 8 14 7 14 7 15 6 16 5 16 5 16 4 17 3 17 3 17 1 18 2 18 0 18 -1 19 -1 18 -2 19 -3 18 -3 19 -5 19 0 0zm-395 294l13 -50 0 0 14 3 13 2 14 1 13 0 14 0 13 -2 13 -2 14 -2 13 -4 13 -4 13 -5 12 -6 13 -6 12 -7 12 -8 12 -8 11 -9 11 -10 11 -10 10 -11 10 -11 10 -12 9 -12 9 -13 8 -13 8 -13 8 -15 6 -14 7 -15 6 -16 5 -15 4 -17 41 10 -5 19 -6 18 -7 18 -7 17 -8 17 -8 17 -9 16 -10 15 -10 15 -11 14 -11 14 -12 13 -12 12 -12 12 -13 11 -14 10 -13 10 -14 8 -14 9 -15 7 -14 7 -15 5 -15 5 -15 4 -16 4 -15 2 -16 2 -15 0 -16 0 -15 -1 -16 -3 -16 -3 0 0zm-206 -438l41 10 0 0 -3 16 -4 17 -2 16 -2 16 -1 16 0 16 0 15 1 16 2 15 2 15 3 15 3 14 4 14 5 14 5 14 6 13 6 12 7 12 7 12 8 11 9 11 8 10 10 10 10 9 10 9 11 7 11 8 12 6 12 6 12 5 13 5 13 3 -13 50 -15 -4 -15 -5 -14 -6 -14 -7 -14 -7 -13 -9 -12 -9 -12 -10 -12 -10 -10 -11 -11 -12 -10 -13 -9 -13 -8 -13 -8 -14 -7 -15 -7 -15 -6 -16 -5 -15 -5 -17 -4 -17 -3 -17 -3 -17 -2 -18 -1 -18 0 -18 0 -18 1 -19 2 -18 3 -19 4 -19 4 -19 0 0zm395 -294l-13 50 0 0 -13 -2 -14 -2 -13 -1 -14 -1 -13 1 -13 1 -14 2 -13 3 -13 4 -13 4 -13 5 -13 6 -12 6 -12 7 -12 8 -12 8 -11 9 -11 9 -11 10 -11 11 -10 11 -9 12 -10 12 -8 13 -9 13 -8 14 -7 14 -7 15 -6 15 -6 15 -5 16 -5 16 -41 -10 6 -18 6 -19 6 -18 8 -17 7 -17 9 -16 9 -16 10 -16 10 -14 11 -14 11 -14 12 -13 12 -12 12 -12 13 -11 13 -10 14 -10 14 -9 14 -8 14 -7 15 -7 15 -6 15 -5 15 -4 15 -3 16 -3 15 -1 16 -1 16 1 15 1 16 2 15 3 0 0z"/>
    </g>
    <g>
     <path class="fil1" d="M3533 684c170,11 293,180 277,378 -17,197 -167,349 -336,338 -170,-11 -293,-180 -277,-378 17,-197 167,-349 336,-338z"/>
     <path id="1" class="fil2" d="M3832 1063l-45 -3 0 0 1 -17 1 -17 -1 -17 -1 -16 -2 -16 -2 -16 -3 -16 -4 -15 -5 -15 -5 -15 -5 -15 -7 -13 -6 -14 -8 -13 -8 -13 -8 -12 -9 -11 -10 -11 -9 -11 -11 -10 -11 -9 -11 -9 -11 -8 -12 -8 -13 -6 -13 -6 -13 -6 -13 -4 -14 -4 -14 -3 -14 -2 -15 -2 5 -52 16 1 17 3 16 3 16 5 16 5 15 6 15 7 14 8 14 9 14 9 13 10 12 11 12 12 11 12 11 13 11 13 10 14 9 15 8 15 8 16 7 16 7 16 6 17 5 18 4 18 4 18 3 18 2 19 1 19 1 20 0 19 -2 20 0 0zm-361 363l5 -52 0 0 14 0 15 0 14 -1 15 -2 14 -3 13 -4 14 -4 13 -5 14 -6 12 -7 13 -7 12 -8 12 -8 12 -9 11 -10 11 -11 10 -11 10 -11 9 -12 9 -13 9 -13 8 -13 7 -14 7 -14 7 -15 5 -15 6 -16 4 -15 4 -17 3 -16 3 -17 1 -17 45 3 -2 20 -3 19 -3 19 -5 19 -5 18 -6 18 -7 18 -7 17 -8 17 -9 16 -9 15 -10 15 -10 15 -11 14 -12 13 -12 13 -12 12 -13 11 -13 10 -14 10 -14 10 -15 8 -15 7 -15 7 -16 6 -15 5 -16 4 -17 4 -16 2 -17 1 -17 1 -17 -1 0 0zm-296 -405l45 3 0 0 -2 17 0 17 1 17 1 16 2 16 2 16 3 16 4 15 5 15 5 15 5 14 7 14 6 14 8 13 8 13 8 12 9 11 9 11 10 11 11 10 11 9 11 9 11 8 12 8 13 6 13 6 13 6 13 4 14 4 14 3 14 2 15 2 -5 52 -16 -1 -17 -3 -16 -3 -16 -5 -16 -5 -15 -6 -15 -7 -14 -8 -14 -9 -14 -9 -13 -10 -12 -11 -12 -12 -12 -12 -10 -13 -11 -13 -10 -14 -9 -15 -8 -15 -8 -16 -7 -16 -7 -16 -6 -17 -5 -18 -5 -18 -3 -18 -3 -18 -2 -19 -2 -19 0 -20 0 -19 2 -20 0 0zm361 -363l-5 52 0 0 -14 0 -15 0 -14 1 -15 2 -14 3 -13 4 -14 4 -13 5 -14 6 -12 7 -13 7 -12 8 -12 8 -12 9 -11 10 -11 11 -10 10 -10 12 -9 12 -9 12 -9 13 -8 14 -7 14 -7 14 -7 15 -5 15 -6 15 -4 16 -4 16 -3 17 -3 17 -1 17 -45 -3 2 -20 3 -19 3 -19 5 -19 5 -18 6 -18 7 -18 7 -17 8 -17 9 -16 9 -15 10 -15 10 -15 11 -14 12 -13 12 -13 12 -12 13 -11 13 -11 14 -9 14 -10 15 -8 15 -8 15 -6 16 -6 15 -5 16 -4 17 -4 16 -2 17 -1 17 -1 17 1 0 0z"/>
    </g>
    <g>
     <path class="fil1" d="M3307 1218c169,-9 313,143 320,341 7,198 -125,366 -295,376 -169,9 -313,-144 -320,-341 -7,-198 125,-366 295,-376z"/>
     <path id="1" class="fil2" d="M3649 1558l-45 3 0 0 -1 -18 -1 -16 -3 -17 -3 -16 -4 -16 -4 -15 -5 -16 -6 -14 -6 -15 -7 -14 -7 -13 -8 -13 -8 -13 -9 -12 -10 -12 -10 -11 -10 -10 -11 -10 -11 -9 -11 -9 -12 -8 -12 -7 -13 -7 -13 -6 -13 -5 -13 -4 -14 -4 -14 -3 -14 -2 -14 -1 -15 -1 -14 1 -2 -53 17 -1 16 1 17 2 16 2 16 3 16 5 16 5 15 6 15 7 15 8 14 8 13 9 14 10 13 11 12 11 12 13 11 12 11 14 11 14 9 14 9 15 9 16 8 16 7 17 7 17 5 17 6 18 4 19 3 19 3 19 2 19 1 20 0 0zm-316 403l-1 -53 0 0 14 -1 15 -2 14 -3 14 -4 13 -4 14 -5 13 -6 12 -7 13 -7 12 -8 11 -9 12 -9 10 -10 11 -11 10 -11 9 -11 9 -12 9 -13 8 -13 7 -13 7 -14 7 -14 5 -15 6 -15 4 -15 4 -16 3 -16 3 -16 2 -17 1 -16 1 -17 -1 -17 45 -3 1 20 -1 19 -1 20 -3 19 -3 19 -3 18 -5 18 -5 18 -6 18 -7 16 -7 17 -8 16 -9 16 -9 15 -10 14 -10 14 -11 14 -12 12 -12 12 -13 12 -13 11 -13 10 -14 9 -14 8 -15 8 -15 7 -16 6 -15 5 -17 5 -16 3 -17 2 -17 2 0 0zm-343 -366l45 -3 0 0 1 17 1 17 3 17 3 16 4 16 4 15 5 15 6 15 6 15 7 14 7 13 8 13 9 13 8 12 10 11 10 11 10 11 11 10 11 9 11 9 12 8 12 7 13 6 13 6 13 6 13 4 14 4 14 3 14 2 14 1 15 1 15 -1 1 53 -17 0 -16 0 -17 -2 -16 -2 -16 -4 -16 -4 -16 -5 -15 -6 -15 -7 -15 -8 -14 -8 -13 -9 -14 -10 -13 -11 -12 -12 -12 -12 -11 -12 -11 -14 -10 -14 -10 -14 -9 -15 -9 -16 -8 -16 -7 -17 -7 -17 -5 -18 -5 -18 -5 -18 -3 -19 -3 -19 -2 -19 -1 -20 0 0zm316 -403l2 53 0 0 -15 1 -15 2 -14 3 -14 3 -13 5 -14 5 -13 6 -12 7 -13 7 -12 8 -11 9 -12 9 -10 10 -11 10 -10 11 -9 12 -9 12 -9 13 -8 13 -7 13 -7 14 -7 14 -5 15 -6 15 -4 15 -4 16 -3 16 -3 16 -2 17 -1 16 0 17 0 17 -45 3 -1 -20 1 -20 1 -19 3 -19 3 -19 3 -18 5 -18 5 -18 6 -18 7 -17 7 -16 8 -16 9 -16 9 -15 10 -14 10 -14 11 -14 12 -13 12 -12 13 -11 13 -11 13 -10 14 -9 14 -9 15 -7 15 -7 16 -6 15 -6 17 -4 16 -3 17 -3 17 -1 0 0z"/>
    </g>
    <g>
     <path class="fil1" d="M2715 1263c157,19 264,190 237,383 -26,193 -175,333 -333,314 -158,-18 -265,-190 -238,-383 26,-192 176,-333 334,-314z"/>
     <path id="1" class="fil2" d="M2973 1648l-42 -5 0 0 2 -16 2 -17 0 -16 0 -16 -1 -16 -1 -16 -2 -16 -3 -15 -3 -15 -4 -15 -5 -14 -5 -14 -6 -13 -6 -13 -6 -13 -8 -12 -7 -12 -9 -12 -8 -10 -9 -11 -10 -9 -10 -9 -11 -9 -10 -8 -12 -7 -11 -7 -12 -5 -12 -6 -13 -4 -13 -4 -13 -2 -14 -3 7 -51 16 3 15 3 15 4 15 5 14 6 14 7 13 8 13 8 13 9 12 10 12 10 11 12 10 12 10 12 10 13 9 14 8 14 8 15 7 15 7 16 6 16 5 16 4 17 4 18 3 17 3 18 2 19 1 18 0 19 -1 19 -1 19 -3 19 0 0zm-358 338l7 -51 0 0 14 1 14 0 13 0 13 -1 14 -2 13 -3 13 -4 13 -4 12 -5 13 -6 12 -6 12 -8 11 -7 12 -9 11 -9 10 -9 11 -11 10 -10 9 -12 9 -11 9 -13 8 -12 8 -14 7 -13 7 -14 6 -15 6 -15 5 -15 5 -16 4 -16 3 -16 2 -17 42 5 -3 20 -3 18 -5 19 -5 18 -6 18 -7 17 -7 17 -8 16 -8 16 -9 15 -10 15 -10 14 -10 14 -11 13 -12 13 -12 11 -12 11 -13 11 -13 10 -14 9 -13 8 -14 7 -15 7 -14 6 -15 5 -15 4 -16 3 -15 3 -16 1 -15 1 -16 -1 -16 -1 0 0zm-255 -411l42 5 0 0 -2 17 -1 16 -1 17 0 16 1 16 1 16 3 15 2 15 4 15 4 15 4 14 5 14 6 14 6 13 7 13 7 12 8 12 8 11 9 11 9 10 9 10 10 9 11 8 11 8 11 7 11 7 12 6 13 5 12 4 13 4 14 3 13 2 -7 51 -16 -2 -15 -4 -15 -4 -15 -5 -14 -6 -14 -7 -13 -7 -13 -9 -13 -9 -12 -10 -11 -10 -12 -11 -10 -12 -10 -13 -10 -13 -9 -14 -8 -14 -8 -14 -7 -16 -7 -15 -5 -17 -6 -16 -4 -17 -4 -17 -3 -18 -3 -18 -1 -18 -1 -19 0 -19 0 -19 2 -19 2 -19 0 0zm358 -338l-7 51 0 0 -14 -1 -13 0 -14 0 -13 2 -14 2 -13 3 -13 3 -13 5 -12 5 -13 5 -12 7 -12 7 -11 8 -12 8 -11 9 -10 10 -11 10 -9 11 -10 11 -9 12 -9 12 -8 13 -8 13 -7 14 -7 14 -6 14 -6 15 -5 15 -4 16 -4 16 -4 16 -2 17 -42 -5 3 -19 4 -19 4 -19 5 -18 6 -17 7 -18 7 -17 8 -16 8 -16 9 -15 10 -15 10 -14 11 -14 11 -13 11 -12 12 -12 12 -11 13 -11 13 -9 14 -9 14 -9 14 -7 14 -7 15 -6 14 -5 16 -4 15 -3 15 -3 16 -1 15 -1 16 1 16 1 0 0z"/>
    </g>
    <g>
     <path class="fil1" d="M2984 1413c146,34 226,206 181,383 -46,177 -201,292 -346,257 -145,-35 -226,-206 -180,-383 45,-177 200,-292 345,-257z"/>
     <path id="1" class="fil2" d="M3184 1800l-39 -9 0 0 4 -15 3 -15 2 -16 2 -15 1 -15 0 -15 0 -14 -1 -15 -1 -14 -2 -14 -3 -14 -3 -14 -4 -13 -5 -13 -4 -13 -6 -12 -6 -12 -6 -11 -7 -11 -8 -11 -7 -10 -9 -9 -9 -9 -9 -9 -10 -8 -10 -7 -10 -7 -11 -6 -11 -6 -12 -4 -12 -5 -13 -3 12 -47 15 4 14 5 13 5 14 7 12 7 12 8 12 8 11 9 11 10 10 11 10 11 9 12 9 12 8 13 7 13 7 14 6 14 6 14 5 15 4 16 4 15 3 16 3 17 1 16 1 17 1 17 -1 17 -1 18 -2 17 -2 18 -4 18 -4 17 0 0zm-371 277l12 -47 0 0 13 2 12 2 13 1 13 0 12 0 13 -1 12 -2 13 -3 12 -3 12 -4 12 -5 12 -5 12 -6 12 -7 11 -7 11 -8 11 -8 10 -9 10 -10 10 -10 9 -10 9 -11 9 -12 8 -12 8 -12 8 -13 7 -13 6 -14 6 -14 5 -15 5 -15 4 -15 39 9 -5 18 -6 17 -6 17 -7 16 -7 16 -8 16 -9 15 -9 14 -9 14 -10 13 -11 13 -11 12 -11 12 -12 11 -12 10 -12 10 -13 9 -13 8 -14 8 -13 7 -14 6 -14 5 -14 5 -14 4 -15 3 -14 2 -15 2 -14 0 -15 0 -15 -1 -14 -2 -15 -3 0 0zm-194 -412l39 9 0 0 -4 16 -3 15 -2 15 -2 15 -1 15 0 15 0 15 1 15 2 14 2 14 3 14 3 13 4 14 4 13 5 12 5 12 6 12 7 12 6 11 8 10 8 10 8 10 9 9 9 9 10 8 10 7 11 7 10 6 12 5 11 5 13 4 12 4 -12 47 -15 -4 -13 -5 -14 -6 -13 -6 -13 -7 -12 -8 -12 -8 -11 -10 -11 -10 -10 -10 -10 -11 -9 -12 -8 -12 -8 -13 -8 -13 -7 -14 -6 -14 -6 -15 -5 -15 -4 -15 -4 -16 -3 -16 -2 -16 -2 -17 -1 -16 0 -18 0 -17 1 -17 2 -18 3 -17 3 -18 4 -18 0 0zm371 -276l-12 47 0 0 -12 -3 -13 -1 -13 -1 -12 -1 -13 1 -13 1 -12 2 -13 3 -12 3 -12 4 -12 5 -12 5 -12 6 -11 7 -11 7 -11 8 -11 8 -11 9 -10 9 -10 10 -9 11 -9 11 -9 12 -8 11 -8 13 -7 13 -7 13 -7 14 -6 14 -5 14 -5 15 -4 15 -39 -9 5 -17 6 -18 6 -16 7 -17 7 -16 8 -15 9 -15 9 -14 10 -14 10 -14 10 -12 11 -13 12 -11 11 -11 12 -10 13 -10 13 -9 13 -9 13 -7 13 -7 14 -6 14 -6 14 -4 15 -4 14 -3 15 -3 14 -1 15 -1 14 1 15 1 15 2 14 3 0 0z"/>
    </g>
    <g>
     <path class="fil1" d="M2520 1876c186,45 289,264 230,490 -58,226 -256,373 -441,329 -186,-45 -289,-264 -231,-490 59,-226 256,-373 442,-329z"/>
     <path id="1" class="fil2" d="M2775 2372l-49 -12 0 0 4 -20 4 -19 3 -20 2 -19 1 -19 1 -19 -1 -19 -1 -18 -2 -19 -2 -18 -4 -17 -4 -18 -5 -17 -5 -16 -6 -16 -7 -16 -8 -15 -8 -15 -9 -14 -9 -13 -10 -13 -11 -12 -11 -12 -12 -11 -13 -10 -13 -10 -13 -8 -14 -8 -14 -7 -15 -6 -16 -5 -16 -5 16 -60 18 5 18 6 17 7 17 8 16 10 16 10 15 11 14 11 14 13 13 13 12 15 12 14 11 16 10 16 10 17 9 18 8 18 7 19 6 19 6 19 5 21 4 20 3 21 2 21 1 22 1 21 -1 22 -1 23 -3 22 -3 23 -5 22 -5 23 0 0zm-474 353l15 -60 0 0 17 3 16 2 16 2 16 0 16 -1 16 -1 16 -3 16 -3 16 -4 16 -5 15 -6 15 -7 15 -8 15 -8 14 -10 14 -10 14 -10 13 -12 13 -12 13 -13 12 -13 11 -14 12 -15 10 -15 10 -16 10 -16 8 -17 9 -18 7 -18 7 -18 6 -19 6 -20 49 12 -6 22 -7 22 -8 22 -9 21 -10 20 -10 20 -11 19 -11 18 -13 18 -13 17 -13 16 -14 16 -15 15 -15 14 -15 13 -16 12 -16 12 -17 10 -17 10 -17 9 -18 8 -17 7 -19 6 -18 5 -18 4 -19 3 -18 2 -19 0 -19 0 -19 -2 -18 -2 -19 -4 0 0zm-247 -526l49 12 0 0 -5 20 -3 19 -3 20 -3 19 -1 19 0 19 0 19 1 18 2 19 3 18 3 17 4 18 5 17 6 16 6 16 7 16 7 15 9 15 9 14 9 13 10 13 11 12 11 12 12 11 12 10 13 9 14 9 14 8 14 7 15 6 15 5 16 5 -15 60 -19 -5 -17 -6 -18 -7 -17 -9 -16 -9 -15 -10 -15 -11 -15 -11 -13 -13 -13 -13 -13 -15 -11 -15 -11 -15 -11 -17 -9 -16 -9 -18 -8 -18 -7 -19 -7 -19 -5 -20 -5 -20 -4 -20 -3 -21 -2 -21 -2 -22 0 -21 1 -22 1 -23 2 -22 4 -23 4 -22 6 -23 0 0zm474 -353l-16 60 0 0 -16 -3 -16 -2 -16 -2 -17 0 -16 0 -16 2 -16 3 -16 3 -15 4 -16 5 -15 6 -16 7 -15 8 -14 8 -15 10 -14 10 -13 10 -14 12 -13 12 -12 13 -12 13 -12 14 -11 15 -10 15 -11 16 -9 16 -9 17 -8 18 -8 18 -6 18 -7 19 -5 20 -49 -12 6 -22 7 -22 8 -22 9 -21 9 -20 11 -20 10 -19 12 -18 12 -18 13 -17 14 -16 14 -16 14 -15 15 -14 16 -13 15 -12 17 -12 16 -11 17 -9 18 -9 17 -8 18 -7 18 -6 18 -5 19 -4 18 -3 19 -2 19 0 19 0 18 2 19 2 19 4 0 0z"/>
    </g>
    <g>
     <path class="fil1" d="M2728 1967c173,-20 329,134 350,343 20,210 -104,396 -277,416 -173,20 -330,-134 -350,-343 -20,-210 103,-396 277,-416z"/>
     <path id="1" class="fil2" d="M3101 2307l-46 6 0 0 -3 -18 -2 -18 -4 -17 -4 -17 -5 -17 -6 -16 -6 -16 -6 -15 -8 -15 -8 -15 -8 -13 -9 -14 -9 -13 -10 -12 -11 -12 -10 -11 -12 -10 -11 -10 -12 -9 -13 -9 -12 -7 -13 -7 -13 -7 -14 -5 -14 -5 -14 -4 -14 -3 -14 -2 -15 -2 -15 0 -15 0 -15 1 -5 -55 17 -2 18 0 17 0 17 2 16 3 17 3 16 5 16 5 16 7 15 7 15 8 15 9 14 10 14 11 13 11 13 12 13 13 12 14 11 14 11 15 11 15 9 16 9 17 9 17 8 18 7 18 6 19 6 19 5 20 4 20 3 21 3 20 0 0zm-298 446l-5 -55 0 0 15 -2 15 -4 14 -3 14 -5 14 -6 13 -6 13 -7 12 -8 13 -8 11 -10 12 -10 11 -10 10 -11 10 -12 10 -12 8 -13 9 -13 8 -14 7 -14 7 -15 6 -15 6 -16 5 -16 4 -16 4 -16 3 -17 2 -17 2 -18 0 -17 1 -18 -1 -18 -1 -18 46 -6 1 21 1 21 0 21 -1 20 -2 20 -3 20 -3 20 -5 19 -5 19 -5 18 -7 18 -7 18 -8 17 -8 16 -9 16 -10 16 -11 14 -11 15 -11 13 -12 13 -13 12 -13 12 -14 10 -14 10 -14 9 -15 9 -16 7 -16 6 -16 6 -16 4 -17 4 -18 2 0 0zm-375 -368l46 -5 0 0 2 18 3 18 3 17 4 17 5 17 6 16 6 16 7 15 7 15 8 14 8 14 9 14 10 13 10 12 10 12 11 11 11 10 12 10 12 9 12 9 13 7 12 7 14 7 13 5 14 5 14 4 14 3 15 2 14 2 15 0 15 0 15 -1 5 55 -17 2 -17 0 -17 0 -17 -2 -17 -3 -16 -3 -17 -5 -16 -5 -15 -7 -16 -7 -15 -8 -14 -9 -15 -10 -14 -11 -13 -11 -13 -12 -13 -13 -12 -14 -11 -14 -11 -15 -10 -15 -10 -16 -9 -17 -9 -17 -7 -18 -8 -18 -6 -19 -6 -19 -4 -20 -5 -20 -3 -21 -2 -21 0 0zm297 -445l5 55 0 0 -15 2 -14 3 -15 4 -14 5 -13 6 -14 6 -13 7 -12 8 -12 8 -12 10 -11 9 -11 11 -11 11 -10 12 -9 12 -9 13 -9 13 -8 14 -7 14 -7 15 -6 15 -5 16 -5 16 -5 16 -3 16 -3 17 -3 17 -1 18 -1 17 0 18 0 18 2 18 -46 5 -2 -21 -1 -20 1 -21 1 -20 1 -20 3 -20 4 -20 4 -19 5 -19 6 -18 6 -18 7 -18 8 -17 9 -16 9 -16 9 -16 11 -15 11 -14 11 -13 12 -13 13 -12 13 -12 14 -10 14 -10 15 -9 15 -9 15 -7 16 -6 16 -6 17 -4 17 -4 17 -2 0 0z"/>
    </g>
    <g>
     <path class="fil1" d="M3151 1850c191,-24 365,144 389,375 24,230 -111,436 -302,460 -191,23 -365,-144 -389,-375 -24,-231 111,-437 302,-460z"/>
     <path id="1" class="fil2" d="M3565 2222l-51 6 0 0 -2 -20 -3 -19 -4 -20 -5 -18 -6 -19 -6 -17 -7 -18 -7 -17 -8 -16 -9 -16 -10 -15 -10 -15 -10 -14 -11 -13 -12 -13 -12 -12 -12 -12 -13 -10 -13 -10 -14 -10 -14 -8 -14 -8 -15 -7 -15 -6 -15 -5 -16 -4 -15 -3 -16 -3 -16 -1 -17 -1 -16 1 -17 1 -6 -61 19 -2 19 0 19 0 19 2 18 3 18 4 18 5 18 6 17 7 17 7 17 9 16 10 16 11 15 11 15 13 15 13 14 14 13 15 13 16 12 16 11 17 11 18 10 18 10 19 9 19 8 20 7 21 6 21 6 22 5 22 3 23 3 23 0 0zm-324 494l-6 -62 0 0 16 -2 16 -4 16 -4 15 -5 15 -7 15 -7 14 -8 14 -8 13 -10 13 -10 13 -11 12 -12 11 -12 11 -13 10 -14 10 -14 9 -15 9 -15 8 -16 7 -16 7 -17 6 -17 5 -17 5 -18 4 -19 3 -18 2 -19 2 -19 1 -20 0 -19 -1 -20 -2 -20 51 -6 2 23 1 23 0 22 -1 23 -2 22 -3 22 -3 22 -5 21 -5 21 -6 20 -7 20 -8 19 -9 19 -9 18 -10 18 -10 17 -12 16 -12 16 -12 15 -14 15 -13 13 -15 13 -15 12 -15 11 -16 10 -17 9 -17 8 -17 7 -18 7 -18 5 -19 4 -19 3 0 0zm-417 -403l51 -6 0 0 2 20 3 19 4 19 5 19 6 18 6 18 7 17 7 17 8 17 9 15 10 16 10 14 10 14 11 14 12 13 12 12 12 11 13 11 13 10 14 9 14 9 14 7 15 7 15 6 15 5 16 5 15 3 16 2 16 2 17 0 16 0 17 -2 6 62 -19 1 -19 1 -19 -1 -19 -1 -18 -3 -18 -4 -18 -5 -18 -6 -17 -7 -17 -8 -17 -9 -16 -9 -16 -11 -15 -12 -15 -12 -15 -13 -14 -14 -13 -15 -13 -16 -12 -16 -11 -17 -11 -18 -10 -18 -10 -19 -9 -20 -8 -20 -7 -20 -6 -22 -6 -21 -5 -22 -3 -23 -3 -23 0 0zm324 -494l6 61 0 0 -16 3 -16 3 -16 5 -15 5 -15 6 -15 8 -14 7 -14 9 -13 10 -13 10 -13 11 -12 12 -11 12 -11 13 -10 13 -10 15 -9 14 -9 16 -8 15 -7 17 -7 16 -6 18 -5 17 -5 18 -4 18 -3 19 -2 19 -2 19 -1 19 0 20 1 20 2 20 -51 6 -2 -23 -1 -23 0 -23 1 -22 2 -22 3 -22 3 -22 5 -21 5 -21 6 -20 7 -20 8 -19 9 -19 9 -19 10 -17 10 -17 12 -17 12 -15 12 -15 14 -15 14 -13 14 -13 15 -12 15 -11 16 -10 17 -9 17 -8 17 -8 18 -6 18 -5 19 -4 19 -3 0 0z"/>
    </g>
    <g>
     <path class="fil1" d="M3619 1212c165,-14 310,137 323,337 13,200 -111,374 -276,388 -166,14 -310,-137 -323,-338 -13,-200 110,-373 276,-387z"/>
     <path id="1" class="fil2" d="M3964 1547l-44 4 0 0 -2 -17 -2 -17 -3 -17 -3 -16 -4 -16 -5 -16 -6 -15 -5 -15 -7 -14 -7 -14 -8 -14 -8 -13 -8 -12 -9 -12 -10 -12 -10 -11 -10 -10 -11 -10 -11 -9 -12 -8 -11 -8 -13 -7 -12 -7 -13 -5 -13 -5 -13 -5 -13 -3 -14 -3 -14 -1 -14 -1 -14 0 -14 0 -4 -53 17 -1 16 0 16 1 16 3 16 3 16 4 15 4 15 6 15 7 14 7 14 8 14 9 13 10 13 11 13 11 12 12 11 13 11 13 11 14 10 14 9 15 9 16 8 16 8 17 7 17 6 18 5 18 5 18 4 19 4 20 2 19 2 20 0 0zm-297 416l-3 -53 0 0 14 -2 14 -2 14 -3 13 -4 14 -5 13 -6 12 -6 12 -7 12 -8 12 -9 11 -9 10 -9 11 -11 10 -10 9 -12 9 -12 8 -12 8 -13 8 -14 7 -13 6 -15 6 -14 5 -15 4 -16 4 -15 4 -16 2 -16 3 -17 1 -17 1 -17 0 -17 -1 -17 44 -4 1 20 0 20 -1 20 -2 19 -2 19 -3 19 -4 19 -5 18 -5 17 -6 18 -7 17 -7 16 -8 16 -9 16 -9 15 -10 14 -10 14 -11 13 -11 13 -12 12 -13 11 -12 10 -14 10 -13 9 -15 8 -14 8 -15 6 -15 6 -16 5 -16 4 -16 2 -17 2 0 0zm-346 -362l44 -3 0 0 1 17 2 17 3 16 4 17 4 16 5 15 5 16 6 14 6 15 8 14 7 13 8 13 9 13 9 12 9 11 10 11 11 11 10 9 12 9 11 9 12 8 12 7 12 6 13 6 13 5 13 4 14 3 14 3 13 2 14 1 15 0 14 -1 3 53 -16 1 -17 0 -16 -1 -16 -2 -16 -3 -15 -4 -16 -5 -15 -6 -14 -6 -15 -8 -14 -8 -14 -9 -13 -10 -13 -10 -12 -12 -12 -12 -12 -12 -11 -13 -10 -14 -10 -15 -10 -15 -8 -16 -9 -16 -7 -16 -7 -18 -6 -17 -6 -18 -5 -19 -4 -19 -3 -19 -3 -20 -1 -20 0 0zm296 -416l4 53 0 0 -15 2 -14 2 -14 4 -13 4 -13 5 -13 5 -13 7 -12 7 -12 8 -11 8 -11 9 -11 10 -10 10 -10 11 -9 11 -9 12 -9 13 -8 13 -7 13 -7 14 -6 14 -6 15 -5 15 -5 15 -4 16 -3 16 -3 16 -2 16 -1 17 -1 17 0 17 1 18 -44 3 -1 -20 0 -20 1 -19 1 -20 3 -19 3 -19 4 -18 4 -18 6 -18 6 -17 6 -17 8 -17 8 -16 8 -15 9 -15 10 -15 10 -14 11 -13 12 -12 12 -12 12 -11 13 -11 13 -10 14 -9 14 -8 15 -7 15 -7 15 -6 15 -4 16 -4 17 -3 16 -2 0 0z"/>
    </g>
    <g>
     <path class="fil1" d="M2216 2530c191,16 326,217 302,449 -24,231 -199,406 -389,390 -191,-16 -326,-217 -302,-448 24,-232 198,-407 389,-391z"/>
     <path id="1" class="fil2" d="M2543 2981l-51 -4 0 0 2 -20 1 -20 0 -20 -1 -19 -2 -19 -2 -19 -3 -19 -4 -18 -5 -17 -5 -18 -6 -17 -7 -16 -7 -16 -8 -16 -9 -15 -9 -14 -10 -14 -10 -13 -11 -13 -11 -11 -12 -12 -13 -10 -13 -10 -13 -9 -14 -8 -14 -7 -15 -7 -15 -5 -15 -5 -16 -4 -16 -3 -16 -2 6 -61 19 2 19 3 18 5 18 5 17 7 17 7 17 9 16 9 15 11 15 11 15 12 13 13 14 14 12 14 12 16 12 16 10 16 10 18 9 17 9 19 8 19 7 20 6 20 5 20 5 21 3 22 3 22 2 22 1 22 0 23 -1 23 -2 23 0 0zm-418 419l7 -62 0 0 16 1 17 0 16 -1 16 -2 16 -3 16 -4 15 -5 16 -6 15 -6 14 -8 15 -8 14 -9 13 -10 14 -10 13 -12 12 -12 12 -12 12 -13 11 -14 10 -15 10 -15 9 -15 9 -17 8 -16 8 -17 7 -18 6 -18 6 -19 4 -18 4 -20 4 -19 2 -20 51 4 -3 23 -4 23 -4 22 -6 22 -6 21 -8 21 -8 21 -8 20 -10 19 -10 19 -11 18 -12 17 -12 17 -12 16 -14 15 -14 15 -14 14 -15 13 -15 12 -16 11 -17 11 -16 9 -17 9 -18 8 -17 6 -18 6 -18 4 -19 4 -19 2 -18 2 -19 0 -20 -1 0 0zm-323 -482l50 5 0 0 -1 20 -1 20 0 19 1 20 1 19 3 18 3 19 4 18 4 18 6 17 6 17 6 16 8 16 8 16 8 15 9 14 10 14 11 13 10 13 12 12 12 11 12 10 13 10 14 9 13 8 15 8 14 6 15 6 16 5 15 3 16 3 17 2 -7 62 -19 -2 -18 -4 -18 -4 -18 -6 -18 -6 -17 -8 -16 -8 -16 -10 -16 -10 -15 -12 -14 -12 -14 -13 -13 -13 -13 -15 -12 -15 -11 -16 -11 -17 -9 -17 -10 -18 -8 -19 -8 -19 -7 -19 -6 -20 -5 -21 -5 -21 -4 -21 -2 -22 -2 -22 -1 -23 0 -22 1 -23 2 -24 0 0zm417 -418l-6 61 0 0 -17 -1 -16 0 -17 2 -16 2 -16 3 -15 4 -16 4 -15 6 -15 7 -15 7 -14 8 -14 9 -14 10 -13 11 -13 11 -12 12 -12 12 -12 14 -11 14 -10 14 -10 15 -10 16 -9 16 -8 17 -7 17 -7 17 -6 18 -6 19 -5 19 -4 19 -3 20 -3 20 -50 -5 3 -23 3 -22 5 -23 6 -22 6 -21 7 -21 8 -20 9 -20 10 -20 10 -18 11 -18 11 -18 12 -17 13 -16 13 -15 14 -15 15 -14 15 -13 15 -12 16 -11 16 -10 17 -10 17 -9 17 -7 18 -7 18 -5 18 -5 19 -4 18 -2 19 -1 19 0 19 1 0 0z"/>
    </g>
    <g>
     <path class="fil1" d="M3648 1858c191,16 326,217 302,449 -24,231 -198,406 -389,390 -191,-16 -326,-217 -302,-448 24,-232 199,-407 389,-391z"/>
     <path id="1" class="fil2" d="M3975 2309l-50 -4 0 0 1 -20 1 -20 0 -20 -1 -19 -1 -19 -3 -19 -3 -19 -4 -18 -4 -17 -6 -18 -6 -17 -6 -16 -8 -16 -8 -16 -8 -15 -10 -14 -9 -14 -11 -13 -11 -13 -11 -11 -12 -12 -12 -10 -13 -10 -14 -9 -13 -8 -15 -7 -14 -7 -15 -6 -16 -4 -15 -4 -17 -3 -16 -2 6 -61 19 2 19 3 18 5 18 5 18 7 17 7 16 9 16 9 16 11 14 11 15 12 14 13 13 14 13 14 12 16 11 16 10 16 10 17 10 18 8 19 8 19 7 20 6 20 5 20 5 21 4 22 2 22 2 22 1 22 0 23 -1 23 -2 23 0 0zm-417 419l6 -62 0 0 17 1 16 0 16 -1 17 -2 15 -3 16 -4 16 -5 15 -6 15 -6 15 -8 14 -8 14 -9 14 -10 13 -10 13 -12 12 -12 12 -12 12 -13 11 -14 10 -15 10 -15 10 -15 9 -17 8 -16 7 -17 7 -18 6 -18 6 -19 5 -18 4 -20 3 -19 3 -20 50 4 -3 23 -3 23 -5 22 -6 22 -6 21 -7 21 -8 21 -9 20 -10 19 -10 19 -11 18 -11 17 -12 17 -13 16 -14 15 -13 15 -15 14 -15 13 -15 12 -16 11 -16 11 -17 9 -17 9 -17 8 -18 6 -18 6 -18 4 -19 4 -18 2 -19 2 -19 0 -19 -1 0 0zm-324 -482l51 5 0 0 -2 20 -1 20 0 19 1 20 2 19 2 18 3 19 4 18 5 18 5 17 6 17 7 16 7 16 8 16 9 15 9 14 10 14 10 13 11 13 11 12 12 11 13 10 12 10 14 9 14 8 14 8 14 6 16 6 15 5 16 3 16 3 16 2 -6 62 -19 -2 -19 -4 -18 -4 -18 -6 -17 -6 -17 -8 -17 -8 -16 -10 -15 -10 -15 -12 -15 -12 -13 -13 -14 -13 -12 -15 -12 -15 -12 -16 -10 -17 -10 -17 -9 -18 -9 -19 -8 -19 -7 -19 -6 -20 -5 -21 -5 -21 -3 -21 -3 -22 -2 -22 -1 -23 0 -23 1 -22 2 -24 0 0zm417 -418l-6 61 0 0 -17 -1 -16 0 -16 2 -16 2 -16 3 -16 4 -15 4 -16 6 -15 7 -14 7 -15 8 -14 9 -13 10 -14 11 -13 11 -12 12 -12 12 -12 14 -11 14 -10 14 -10 15 -9 16 -9 16 -8 17 -8 17 -7 17 -6 18 -6 19 -5 19 -4 19 -3 20 -2 20 -51 -5 3 -23 4 -22 4 -23 6 -22 6 -21 8 -21 8 -20 8 -20 10 -20 10 -18 11 -18 11 -18 13 -17 12 -16 14 -15 14 -15 14 -14 15 -13 15 -12 16 -11 16 -10 17 -10 17 -9 17 -7 18 -7 18 -5 18 -5 19 -4 18 -2 19 -1 19 0 19 1 0 0z"/>
    </g>
    <g>
     <path class="fil1" d="M3658 2584c190,16 325,217 301,449 -24,231 -198,406 -389,390 -190,-16 -326,-217 -301,-449 24,-231 198,-406 389,-390z"/>
     <path id="1" class="fil2" d="M3985 3035l-51 -4 0 0 2 -20 0 -20 0 -20 0 -19 -2 -19 -2 -19 -4 -19 -4 -18 -4 -17 -5 -18 -6 -17 -7 -16 -8 -16 -7 -16 -9 -15 -9 -14 -10 -14 -10 -13 -11 -13 -12 -11 -12 -12 -12 -10 -13 -10 -13 -9 -14 -8 -14 -7 -15 -7 -15 -6 -15 -4 -16 -4 -16 -3 -17 -2 7 -61 19 2 18 3 19 5 17 5 18 7 17 7 16 9 16 9 16 11 15 11 14 12 14 13 13 14 13 14 12 16 11 16 11 16 10 18 9 17 8 19 8 19 7 20 6 20 6 20 4 21 4 22 3 22 1 22 1 22 0 23 -1 23 -1 23 0 0zm-418 419l6 -62 0 0 17 1 16 0 17 -1 16 -2 16 -3 15 -4 16 -5 15 -6 15 -6 15 -8 14 -8 14 -9 14 -10 13 -10 13 -12 13 -12 12 -12 11 -13 11 -14 11 -15 10 -15 9 -15 9 -17 8 -16 8 -17 6 -18 7 -18 5 -19 5 -18 4 -20 3 -19 3 -20 51 4 -3 23 -4 23 -5 22 -5 22 -7 21 -7 21 -8 21 -9 20 -9 19 -11 19 -10 18 -12 17 -12 17 -13 16 -13 15 -14 15 -15 14 -14 13 -16 12 -16 11 -16 11 -17 9 -17 9 -17 8 -18 6 -18 6 -18 4 -18 4 -19 2 -19 2 -19 0 -19 -1 0 0zm-324 -482l51 5 0 0 -2 20 -1 20 0 19 1 20 2 19 2 18 3 19 4 18 5 18 5 17 6 17 7 16 7 16 8 16 9 15 9 14 10 14 10 13 11 13 11 12 12 11 13 10 13 10 13 9 14 8 14 8 15 6 15 6 15 5 16 3 16 3 16 2 -6 62 -19 -2 -19 -4 -18 -4 -18 -6 -17 -6 -17 -8 -17 -8 -16 -10 -15 -10 -15 -12 -14 -12 -14 -13 -13 -13 -13 -15 -12 -15 -11 -16 -11 -17 -10 -17 -9 -18 -9 -19 -7 -19 -7 -19 -7 -20 -5 -21 -4 -21 -4 -21 -3 -22 -2 -22 -1 -23 0 -23 1 -22 2 -24 0 0zm418 -418l-7 61 0 0 -16 -1 -17 0 -16 1 -16 3 -16 3 -16 4 -15 4 -15 6 -15 7 -15 7 -14 8 -14 9 -14 10 -13 11 -13 11 -13 12 -12 12 -11 14 -11 14 -11 14 -10 15 -9 16 -9 16 -8 17 -8 17 -7 17 -6 18 -5 19 -5 19 -4 19 -4 20 -2 20 -51 -5 3 -23 4 -22 5 -23 5 -22 7 -21 7 -21 8 -20 9 -20 9 -20 10 -18 11 -19 12 -17 12 -17 13 -16 13 -15 14 -15 14 -14 15 -13 16 -12 15 -11 17 -10 16 -10 17 -9 18 -7 17 -7 18 -5 19 -5 18 -4 19 -2 19 -1 19 0 19 1 0 0z"/>
    </g>
    <g>
     <path class="fil1" d="M2679 2525c191,-14 356,163 368,395 13,232 -133,431 -324,445 -192,14 -357,-163 -369,-395 -12,-232 133,-431 325,-445z"/>
     <path id="1" class="fil2" d="M3073 2918l-51 4 0 0 -1 -20 -3 -20 -3 -19 -4 -19 -4 -19 -6 -18 -6 -18 -6 -17 -8 -17 -8 -16 -8 -16 -9 -15 -10 -14 -10 -14 -11 -14 -12 -12 -11 -13 -13 -11 -13 -11 -13 -10 -13 -9 -14 -8 -15 -8 -14 -6 -15 -6 -15 -5 -16 -4 -16 -4 -16 -2 -16 -1 -16 -1 -17 1 -3 -61 19 -1 19 0 19 2 18 2 19 4 18 5 17 6 18 6 17 8 16 9 16 10 16 10 15 12 15 12 14 13 14 14 13 15 13 16 12 16 11 17 11 17 10 19 9 18 8 20 8 20 7 20 6 21 6 22 4 22 4 22 2 23 2 23 0 0zm-348 477l-4 -61 0 0 17 -2 16 -3 16 -3 16 -5 15 -5 15 -7 14 -7 15 -8 14 -9 13 -9 13 -10 12 -12 12 -11 12 -13 11 -13 10 -14 10 -14 10 -15 8 -15 9 -16 7 -16 7 -17 6 -17 6 -18 5 -18 4 -19 3 -18 3 -19 1 -20 1 -19 1 -20 -1 -20 51 -4 1 23 -1 23 -1 23 -2 22 -3 22 -4 22 -5 22 -5 20 -7 21 -7 20 -8 20 -8 19 -10 18 -10 18 -11 17 -11 16 -12 16 -13 15 -14 15 -13 13 -15 13 -15 12 -15 11 -16 11 -17 9 -17 8 -17 8 -18 6 -18 5 -19 4 -18 3 -19 2 0 0zm-396 -423l50 -4 0 0 2 20 2 20 3 19 4 19 5 19 5 18 6 18 7 17 7 17 8 16 9 16 9 15 10 14 10 14 11 14 11 12 12 13 12 11 13 11 13 9 14 10 14 8 14 8 15 6 15 6 15 5 15 4 16 4 16 2 16 1 17 1 16 -1 4 61 -20 1 -19 0 -18 -2 -19 -2 -18 -4 -18 -5 -18 -6 -17 -6 -17 -8 -17 -9 -16 -10 -16 -10 -15 -12 -15 -12 -14 -13 -14 -14 -13 -15 -12 -16 -12 -16 -12 -17 -10 -17 -10 -19 -9 -18 -9 -20 -8 -20 -7 -20 -6 -21 -5 -22 -5 -22 -3 -22 -3 -23 -1 -23 0 0zm348 -477l3 61 0 0 -16 2 -17 3 -16 3 -15 5 -15 5 -15 7 -15 7 -14 8 -14 9 -13 9 -13 10 -13 12 -12 11 -11 13 -11 13 -11 13 -10 15 -9 15 -9 15 -8 16 -8 16 -7 17 -6 17 -5 18 -5 18 -4 19 -4 18 -2 19 -2 20 -1 19 0 20 0 20 -50 4 -1 -23 0 -23 1 -23 2 -22 3 -22 4 -22 5 -22 6 -20 6 -21 7 -20 8 -20 9 -19 9 -18 10 -18 11 -17 12 -16 12 -16 13 -15 13 -15 14 -13 14 -13 15 -12 16 -11 16 -11 16 -9 17 -8 18 -8 17 -6 19 -5 18 -4 19 -4 19 -1 0 0z"/>
    </g>
    <g>
     <path class="fil1" d="M3233 2442c208,18 354,236 328,488 -26,251 -215,441 -423,424 -207,-18 -354,-236 -328,-488 27,-251 216,-441 423,-424z"/>
     <path id="1" class="fil2" d="M3589 2932l-55 -5 0 0 1 -21 1 -22 0 -21 -1 -21 -1 -21 -3 -21 -3 -20 -5 -19 -5 -20 -5 -18 -7 -19 -7 -18 -8 -17 -9 -17 -9 -16 -10 -16 -11 -15 -11 -14 -12 -14 -12 -13 -13 -12 -14 -11 -14 -11 -14 -10 -15 -9 -16 -8 -16 -7 -16 -6 -17 -5 -17 -4 -17 -3 -18 -2 7 -67 20 2 21 4 19 5 20 6 19 7 18 8 18 9 18 10 16 12 17 12 15 13 15 14 15 15 13 16 13 17 13 17 11 18 11 19 10 20 9 20 9 20 7 22 7 22 6 22 5 23 4 23 3 24 2 24 1 24 0 25 -1 25 -2 25 0 0zm-454 455l7 -67 0 0 18 1 18 0 17 -1 18 -2 17 -4 17 -4 17 -5 17 -6 16 -8 16 -8 16 -9 15 -9 15 -11 14 -11 14 -13 14 -13 13 -13 12 -15 12 -15 12 -16 10 -16 11 -17 9 -17 9 -19 8 -18 8 -19 7 -20 6 -20 5 -21 4 -21 4 -21 3 -22 55 5 -3 25 -5 25 -5 24 -6 24 -7 23 -8 23 -8 22 -10 22 -10 21 -11 20 -12 20 -13 19 -13 18 -14 17 -14 17 -15 16 -16 15 -16 14 -17 13 -17 13 -18 11 -18 10 -18 10 -19 8 -19 7 -20 6 -20 5 -20 4 -20 3 -21 1 -20 0 -21 -1 0 0zm-352 -523l55 5 0 0 -2 21 -1 22 0 21 1 21 2 21 3 21 3 20 4 19 5 20 6 18 7 19 7 18 8 17 8 17 10 16 10 16 10 15 12 14 12 14 12 13 13 12 13 11 14 11 15 10 15 9 15 8 16 7 17 6 16 5 17 4 18 3 18 2 -7 67 -21 -2 -20 -4 -20 -5 -19 -6 -19 -7 -19 -8 -18 -9 -17 -11 -17 -11 -16 -12 -16 -13 -15 -14 -14 -15 -14 -16 -13 -17 -12 -17 -12 -18 -10 -19 -10 -20 -10 -20 -8 -20 -8 -22 -6 -22 -6 -22 -5 -23 -4 -23 -3 -24 -2 -24 -1 -24 0 -25 1 -25 2 -25 0 0zm454 -455l-7 67 0 0 -18 -1 -18 0 -18 1 -17 2 -18 4 -17 4 -17 5 -16 6 -16 8 -16 8 -16 9 -15 9 -15 11 -15 11 -14 13 -13 13 -13 13 -13 15 -12 15 -11 16 -11 16 -10 17 -10 17 -9 19 -8 18 -7 19 -7 20 -6 20 -5 21 -5 21 -3 21 -3 22 -55 -5 3 -25 4 -25 5 -24 6 -24 7 -23 8 -23 9 -22 9 -22 11 -21 11 -20 12 -20 12 -19 13 -18 14 -17 15 -17 15 -16 16 -15 16 -14 17 -13 17 -13 17 -11 18 -10 19 -10 19 -8 19 -7 20 -6 19 -5 21 -4 20 -3 20 -1 21 0 21 1 0 0z"/>
    </g>
    <g>
     <path class="fil1" d="M2456 3150c190,16 326,217 301,448 -24,232 -198,406 -388,390 -191,-16 -326,-217 -302,-448 24,-232 198,-406 389,-390z"/>
     <path id="1" class="fil2" d="M2783 3600l-51 -4 0 0 2 -20 1 -20 0 -19 -1 -20 -2 -19 -2 -19 -3 -18 -4 -18 -5 -18 -5 -17 -6 -17 -7 -17 -7 -16 -8 -15 -9 -15 -9 -15 -10 -13 -10 -14 -11 -12 -11 -12 -12 -11 -13 -11 -13 -9 -13 -9 -14 -9 -14 -7 -15 -6 -15 -6 -15 -5 -16 -4 -16 -3 -16 -1 6 -62 19 2 19 4 18 4 18 5 17 7 17 8 17 8 16 10 15 10 15 11 14 12 14 13 13 14 13 15 12 15 11 16 11 17 10 17 9 18 9 18 7 19 7 20 7 20 5 21 4 21 4 21 3 22 2 22 1 22 0 23 -1 23 -2 23 0 0zm-418 419l7 -61 0 0 16 0 17 0 16 -1 16 -2 16 -3 16 -4 15 -5 15 -5 15 -7 15 -7 14 -9 14 -9 14 -9 13 -11 13 -11 13 -12 12 -13 11 -13 11 -14 11 -14 10 -15 9 -16 9 -16 8 -17 8 -17 7 -18 6 -18 5 -18 5 -19 4 -19 4 -20 2 -20 51 4 -3 23 -4 23 -5 22 -5 22 -7 22 -7 21 -8 20 -9 20 -9 19 -10 19 -11 18 -12 18 -12 16 -13 16 -13 16 -14 14 -14 14 -15 13 -16 12 -15 12 -17 10 -16 10 -17 8 -18 8 -17 7 -18 5 -19 5 -18 3 -19 3 -19 1 -19 0 -19 -1 0 0zm-324 -481l51 4 0 0 -1 20 -1 20 0 20 1 19 1 19 3 19 3 18 4 18 4 18 6 17 6 17 6 17 8 16 8 15 8 15 9 15 10 13 10 14 11 12 12 12 12 11 12 11 13 10 13 9 14 8 14 7 15 7 15 5 15 5 16 4 16 3 17 2 -7 61 -19 -2 -18 -3 -19 -5 -17 -5 -18 -7 -17 -7 -16 -9 -16 -9 -16 -11 -15 -11 -14 -12 -14 -13 -13 -14 -13 -15 -12 -15 -11 -16 -11 -16 -10 -18 -9 -18 -8 -18 -8 -19 -7 -20 -6 -20 -6 -21 -4 -21 -4 -21 -3 -22 -1 -22 -1 -22 0 -23 1 -23 1 -23 0 0zm418 -419l-6 62 0 0 -17 -1 -16 0 -17 1 -16 2 -16 3 -15 4 -16 5 -15 6 -15 6 -15 8 -14 8 -14 9 -14 10 -13 10 -13 11 -13 12 -12 13 -11 13 -11 14 -11 14 -10 16 -9 15 -9 16 -8 17 -8 17 -6 18 -7 18 -5 18 -5 19 -4 19 -3 20 -3 20 -51 -4 3 -23 4 -23 5 -22 5 -22 7 -22 7 -21 8 -20 9 -20 9 -19 11 -19 10 -18 12 -18 12 -16 13 -16 13 -16 14 -14 15 -14 14 -13 16 -12 16 -12 16 -10 17 -10 17 -8 17 -8 18 -6 18 -6 18 -5 18 -3 19 -3 19 -1 19 0 19 1 0 0z"/>
    </g>
    <g>
     <path class="fil1" d="M2930 3201c191,-14 357,162 369,394 12,232 -133,431 -325,445 -191,14 -356,-163 -369,-394 -12,-232 133,-431 325,-445z"/>
     <path id="1" class="fil2" d="M3324 3593l-51 4 0 0 -1 -20 -2 -20 -4 -19 -3 -19 -5 -18 -5 -19 -6 -17 -7 -17 -7 -17 -8 -16 -9 -16 -9 -15 -10 -15 -10 -14 -11 -13 -11 -13 -12 -12 -12 -12 -13 -10 -13 -10 -14 -9 -14 -9 -14 -7 -15 -7 -15 -6 -15 -5 -16 -4 -15 -3 -16 -3 -17 -1 -16 0 -16 1 -4 -62 19 -1 19 0 19 2 19 3 18 3 18 5 18 6 17 7 17 8 17 8 16 10 15 11 16 11 14 13 15 13 13 14 14 15 12 15 12 16 11 17 11 18 10 18 9 19 9 19 7 20 7 21 7 21 5 21 4 22 4 23 2 22 2 23 0 0zm-348 478l-3 -62 0 0 16 -1 16 -3 16 -4 16 -4 15 -6 15 -6 15 -7 14 -8 14 -9 13 -10 13 -10 13 -11 12 -12 11 -12 11 -13 11 -14 10 -14 9 -15 9 -16 8 -16 7 -16 7 -17 7 -17 5 -18 5 -18 4 -18 3 -19 3 -19 2 -19 1 -20 0 -20 -1 -20 51 -4 1 24 0 23 -1 22 -3 23 -3 22 -3 22 -5 21 -6 21 -6 20 -7 20 -8 20 -9 19 -10 18 -10 18 -10 17 -12 17 -12 16 -13 15 -13 14 -14 14 -15 13 -15 12 -15 11 -16 10 -17 9 -17 9 -17 7 -18 6 -18 6 -18 4 -19 3 -19 2 0 0zm-396 -424l51 -3 0 0 1 20 3 19 3 20 3 19 5 18 5 18 6 18 7 17 7 17 8 16 9 16 9 15 10 15 10 14 11 13 11 13 12 12 13 11 12 11 13 10 14 9 14 8 14 8 15 7 15 6 15 5 16 4 15 3 16 2 17 2 16 0 17 -1 3 62 -19 1 -19 -1 -19 -1 -19 -3 -18 -4 -18 -4 -18 -6 -17 -7 -17 -8 -16 -9 -17 -9 -15 -11 -16 -12 -14 -12 -15 -13 -13 -14 -13 -15 -13 -15 -12 -16 -11 -17 -11 -18 -10 -18 -9 -19 -9 -19 -7 -20 -7 -21 -6 -21 -6 -21 -4 -22 -4 -23 -2 -23 -2 -23 0 0zm348 -477l4 62 0 0 -17 1 -16 3 -16 4 -16 4 -15 6 -15 6 -15 7 -14 8 -14 9 -13 10 -13 10 -13 11 -12 12 -11 12 -11 13 -11 14 -10 14 -9 15 -9 15 -8 16 -7 17 -7 17 -6 17 -6 17 -5 19 -4 18 -3 19 -3 19 -2 19 -1 20 0 20 1 20 -51 3 -1 -23 0 -23 2 -22 2 -23 3 -22 4 -22 4 -21 6 -21 6 -21 7 -20 8 -19 9 -19 10 -19 10 -17 11 -18 11 -16 12 -16 13 -15 13 -14 14 -14 15 -13 15 -12 15 -11 16 -10 17 -9 17 -9 17 -7 18 -6 18 -6 18 -4 19 -3 19 -2 0 0z"/>
    </g>
    <g>
     <path class="fil1" d="M3382 3259c192,-10 354,169 363,401 8,232 -140,429 -332,440 -191,10 -354,-169 -362,-401 -9,-232 140,-429 331,-440z"/>
     <path id="1" class="fil2" d="M3770 3658l-51 3 0 0 -1 -20 -2 -19 -3 -20 -3 -19 -5 -18 -5 -19 -5 -17 -7 -18 -7 -17 -7 -16 -9 -16 -9 -15 -9 -15 -10 -14 -11 -14 -11 -13 -12 -12 -12 -12 -12 -10 -13 -11 -14 -9 -14 -9 -14 -7 -14 -7 -15 -6 -15 -6 -16 -4 -16 -4 -15 -2 -17 -2 -16 0 -17 0 -2 -61 19 -1 19 1 19 1 18 3 19 4 18 6 17 6 17 7 17 8 17 9 16 10 15 11 15 12 15 12 14 14 13 14 13 15 12 15 12 17 11 17 11 18 9 18 9 19 8 20 8 20 6 20 6 21 5 22 4 22 3 22 3 23 1 23 0 0zm-356 472l-2 -61 0 0 17 -2 16 -2 16 -4 16 -4 15 -5 15 -6 15 -7 14 -8 14 -9 13 -9 14 -10 12 -11 12 -11 12 -13 11 -13 11 -13 10 -14 10 -15 9 -15 8 -16 8 -16 7 -17 7 -17 5 -18 6 -18 4 -18 4 -19 3 -19 2 -19 1 -20 0 -20 0 -20 51 -3 0 24 0 23 -2 22 -2 23 -3 22 -5 21 -5 22 -6 21 -6 20 -8 20 -8 19 -9 19 -10 18 -10 18 -12 17 -11 16 -13 16 -13 15 -13 14 -14 14 -15 12 -15 12 -16 11 -16 10 -17 9 -17 8 -17 7 -18 6 -18 5 -19 4 -19 3 -19 1 0 0zm-389 -430l51 -2 0 0 1 20 2 19 3 20 4 19 4 18 5 19 6 17 6 18 7 17 8 16 8 16 9 15 10 15 10 14 10 14 11 13 12 12 12 11 13 11 13 10 13 10 14 8 14 8 15 7 15 6 15 6 15 4 16 3 16 3 16 2 16 0 17 0 2 61 -19 1 -19 -1 -19 -2 -18 -3 -18 -4 -18 -5 -18 -6 -17 -7 -17 -8 -16 -9 -16 -10 -16 -11 -15 -12 -14 -12 -14 -14 -14 -14 -13 -15 -12 -15 -12 -17 -11 -17 -10 -18 -10 -18 -9 -19 -8 -20 -7 -20 -7 -20 -6 -22 -5 -21 -4 -22 -3 -23 -2 -22 -2 -24 0 0zm356 -471l2 61 0 0 -16 2 -16 2 -16 3 -16 5 -16 5 -15 6 -14 7 -15 8 -14 8 -13 10 -13 10 -13 11 -12 11 -12 13 -11 13 -11 13 -10 14 -10 15 -9 15 -8 16 -8 16 -7 17 -6 17 -6 18 -5 18 -5 18 -3 19 -3 19 -2 19 -2 20 0 20 0 20 -51 2 0 -23 0 -23 2 -22 2 -23 4 -22 4 -22 5 -21 6 -21 7 -20 7 -20 9 -19 9 -19 9 -19 11 -17 11 -17 12 -17 12 -15 13 -15 14 -14 14 -14 14 -12 16 -12 15 -11 16 -10 17 -9 17 -8 18 -7 17 -6 19 -5 18 -4 19 -3 19 -1 0 0z"/>
    </g>
    <g>
     <path class="fil1" d="M2807 3725c191,16 326,217 302,449 -24,231 -198,406 -389,390 -190,-16 -326,-217 -301,-449 24,-231 198,-406 388,-390z"/>
     <path id="1" class="fil2" d="M3134 4176l-50 -5 0 0 1 -20 1 -20 0 -19 -1 -19 -1 -20 -3 -18 -3 -19 -4 -18 -4 -18 -6 -17 -6 -17 -6 -16 -8 -16 -8 -16 -8 -15 -9 -14 -10 -14 -10 -13 -11 -13 -12 -12 -12 -11 -12 -10 -13 -10 -13 -9 -14 -8 -14 -8 -15 -6 -15 -6 -15 -5 -16 -3 -16 -3 -17 -2 7 -62 19 3 18 3 19 4 17 6 18 6 17 8 16 8 16 10 16 10 15 12 14 12 14 13 13 13 13 15 12 15 11 16 11 17 10 17 9 18 8 19 8 19 7 19 6 20 6 21 4 21 4 21 3 22 1 22 1 23 0 23 -1 23 -2 23 0 0zm-417 418l6 -61 0 0 17 1 16 0 17 -1 16 -3 16 -3 15 -4 16 -4 15 -6 15 -7 15 -7 14 -8 14 -9 14 -10 13 -11 13 -11 13 -12 12 -12 11 -14 11 -14 11 -14 10 -15 9 -16 9 -16 8 -16 8 -18 6 -17 7 -18 5 -19 5 -19 4 -19 3 -20 3 -20 50 5 -2 23 -4 22 -5 23 -5 22 -7 21 -7 21 -8 21 -9 19 -9 20 -11 18 -10 19 -12 17 -12 17 -13 16 -13 15 -14 15 -15 14 -15 13 -15 12 -16 11 -16 11 -17 9 -17 9 -17 7 -18 7 -18 6 -18 4 -18 4 -19 2 -19 1 -19 0 -19 -1 0 0zm-324 -481l51 4 0 0 -2 20 -1 20 0 20 1 19 2 19 2 19 3 19 4 18 5 17 5 18 6 17 7 16 7 16 8 16 9 15 9 14 10 14 10 13 11 13 11 11 12 12 13 10 13 10 13 9 14 8 14 7 15 7 15 6 15 4 16 4 16 3 16 2 -6 61 -19 -2 -19 -3 -18 -4 -18 -6 -17 -7 -17 -7 -17 -9 -16 -9 -15 -11 -15 -11 -14 -12 -14 -13 -13 -14 -13 -14 -12 -16 -11 -15 -11 -17 -10 -17 -9 -18 -9 -19 -7 -19 -7 -20 -7 -20 -5 -20 -4 -21 -4 -22 -3 -21 -2 -23 -1 -22 0 -23 1 -23 2 -23 0 0zm418 -419l-7 62 0 0 -16 -1 -17 0 -16 1 -16 2 -16 3 -16 4 -15 5 -15 6 -15 6 -15 8 -14 8 -15 9 -13 10 -13 10 -13 12 -13 12 -12 12 -11 13 -11 14 -11 15 -10 15 -9 15 -9 17 -8 16 -8 17 -7 18 -6 18 -5 19 -5 18 -4 20 -4 19 -2 20 -51 -4 3 -23 4 -23 5 -22 5 -22 7 -21 7 -21 8 -21 9 -20 9 -19 10 -19 11 -18 12 -17 12 -17 13 -16 13 -15 14 -15 14 -14 15 -13 16 -12 15 -11 17 -11 16 -9 17 -9 18 -7 17 -7 18 -6 19 -4 18 -4 19 -2 19 -2 19 0 19 1 0 0z"/>
    </g>
    <g>
     <path class="fil1" d="M3169 3919c191,-14 356,163 368,395 13,232 -133,431 -324,445 -192,14 -357,-163 -369,-395 -12,-232 133,-431 325,-445z"/>
     <path id="1" class="fil2" d="M3563 4312l-51 4 0 0 -1 -20 -3 -20 -3 -19 -4 -19 -4 -19 -6 -18 -6 -18 -6 -17 -8 -17 -8 -16 -8 -16 -9 -15 -10 -14 -10 -14 -11 -14 -12 -12 -11 -13 -13 -11 -13 -11 -13 -9 -13 -10 -14 -8 -14 -8 -15 -6 -15 -6 -15 -5 -16 -4 -16 -4 -16 -2 -16 -1 -16 -1 -17 1 -3 -61 19 -1 19 0 19 2 18 2 19 4 18 5 17 6 18 6 17 8 16 9 16 10 16 10 15 12 15 12 14 13 14 14 13 15 13 16 12 16 11 17 11 17 10 19 9 18 8 20 8 20 7 20 6 21 6 22 4 22 4 22 2 23 2 23 0 0zm-348 477l-4 -61 0 0 17 -2 16 -3 16 -3 16 -5 15 -5 15 -7 15 -7 14 -8 14 -9 13 -9 13 -10 12 -12 12 -11 12 -13 11 -13 10 -13 10 -15 10 -15 8 -15 9 -16 7 -16 7 -17 6 -17 6 -18 5 -18 4 -19 3 -18 3 -19 1 -20 1 -19 1 -20 -1 -20 51 -4 1 23 -1 23 -1 23 -2 22 -3 22 -4 22 -5 22 -5 20 -6 21 -8 20 -8 20 -8 19 -10 18 -10 18 -11 17 -11 16 -12 16 -13 15 -13 15 -14 13 -15 13 -15 12 -15 11 -16 11 -17 9 -17 8 -17 8 -18 6 -18 5 -19 4 -18 4 -19 1 0 0zm-396 -423l51 -4 0 0 1 20 2 20 3 19 4 19 5 19 5 18 6 18 7 17 7 17 8 16 9 16 9 15 10 14 10 14 11 14 11 12 12 13 12 11 13 11 13 9 14 10 14 8 14 8 15 6 15 6 15 5 15 4 16 4 16 2 16 1 17 1 16 -1 4 61 -20 1 -19 0 -18 -2 -19 -2 -18 -4 -18 -5 -18 -6 -17 -6 -17 -8 -17 -9 -16 -10 -16 -10 -15 -12 -15 -12 -14 -13 -14 -14 -13 -15 -12 -16 -12 -16 -12 -17 -10 -17 -10 -19 -9 -18 -9 -20 -8 -20 -7 -20 -6 -21 -5 -22 -4 -22 -4 -22 -3 -23 -1 -23 0 0zm348 -477l3 61 0 0 -16 2 -17 3 -16 3 -15 5 -15 5 -15 7 -15 7 -14 8 -14 9 -13 9 -13 10 -13 12 -12 11 -11 13 -11 13 -11 13 -10 15 -9 15 -9 15 -8 16 -8 16 -7 17 -6 17 -5 18 -5 18 -4 19 -4 18 -2 19 -2 20 -1 19 0 20 1 20 -51 4 -1 -23 0 -23 1 -23 2 -22 3 -22 4 -22 5 -22 6 -20 6 -21 7 -20 8 -20 9 -19 9 -18 10 -18 11 -17 12 -16 12 -16 13 -15 13 -15 14 -13 14 -13 15 -12 16 -11 16 -11 16 -9 17 -8 18 -8 17 -6 19 -5 18 -4 19 -4 19 -1 0 0z"/>
    </g>
    <g>
     <path class="fil1" d="M3718 3939c184,54 281,292 217,531 -65,240 -267,390 -451,336 -184,-55 -281,-292 -216,-531 64,-240 266,-390 450,-336z"/>
     <path id="1" class="fil2" d="M3959 4478l-49 -15 0 0 5 -21 5 -20 3 -21 3 -21 1 -20 1 -20 1 -20 -1 -20 -1 -20 -3 -19 -2 -19 -4 -19 -4 -18 -6 -18 -5 -17 -7 -17 -7 -17 -8 -15 -8 -16 -9 -15 -10 -14 -10 -13 -11 -13 -12 -12 -12 -11 -13 -11 -13 -9 -14 -9 -14 -8 -15 -7 -15 -7 -16 -5 18 -63 18 6 17 7 18 8 16 9 16 11 15 11 15 12 14 13 13 14 13 15 12 15 11 17 11 17 10 18 9 18 8 19 7 20 7 20 6 21 5 21 4 21 4 22 2 23 2 22 0 23 0 24 -1 23 -2 24 -3 24 -4 24 -5 24 -6 24 0 0zm-483 359l17 -63 0 0 16 4 16 3 16 2 16 1 16 0 17 -1 16 -2 16 -3 15 -4 16 -5 16 -6 15 -7 15 -8 15 -8 15 -9 14 -11 14 -11 14 -11 13 -13 13 -13 12 -14 12 -14 12 -16 11 -16 10 -16 10 -18 9 -17 9 -19 8 -19 7 -19 7 -20 6 -21 49 15 -7 23 -8 24 -8 22 -9 22 -11 21 -10 21 -12 20 -12 19 -13 19 -13 18 -14 16 -14 17 -15 15 -15 14 -16 14 -16 13 -17 11 -17 11 -17 10 -18 9 -18 8 -18 6 -18 6 -18 5 -19 3 -18 3 -19 1 -19 0 -18 -1 -19 -2 -19 -4 -18 -5 0 0zm-233 -570l49 15 0 0 -5 21 -5 20 -3 21 -3 20 -1 21 -1 20 -1 20 1 20 2 20 2 19 3 19 3 19 5 18 5 18 5 17 7 17 7 17 8 15 8 16 9 15 10 14 11 13 10 13 12 12 12 11 13 11 13 9 14 9 14 8 15 7 15 7 16 5 -17 63 -19 -6 -17 -7 -17 -8 -17 -9 -16 -11 -15 -11 -15 -12 -14 -13 -13 -14 -13 -15 -12 -15 -11 -17 -11 -17 -10 -18 -9 -18 -8 -19 -7 -20 -7 -20 -6 -21 -5 -21 -4 -21 -4 -22 -2 -23 -2 -22 0 -23 0 -24 1 -23 2 -24 3 -24 4 -24 5 -24 6 -24 0 0zm484 -359l-18 63 0 0 -16 -4 -16 -3 -16 -2 -16 -1 -16 0 -16 1 -16 2 -16 3 -16 4 -16 5 -16 6 -15 7 -15 8 -15 8 -15 9 -14 11 -14 10 -14 12 -13 13 -13 13 -12 14 -12 14 -12 16 -11 16 -10 16 -10 17 -9 18 -9 19 -8 19 -7 19 -7 20 -6 21 -49 -15 7 -23 8 -24 8 -22 10 -22 10 -21 10 -21 12 -20 12 -19 13 -19 13 -18 14 -17 14 -16 15 -15 16 -14 15 -14 17 -13 16 -11 17 -11 17 -10 18 -9 18 -8 18 -6 18 -6 18 -5 19 -3 18 -3 19 -1 19 0 19 1 18 2 19 4 19 5 0 0z"/>
    </g>
    <g>
     <path class="fil1" d="M3702 3202c167,20 292,225 279,458 -14,233 -161,406 -329,387 -168,-20 -293,-225 -279,-458 14,-233 161,-406 329,-387z"/>
     <path id="1" class="fil2" d="M4003 3662l-45 -5 0 0 1 -20 0 -20 0 -20 -2 -19 -2 -20 -2 -19 -4 -18 -4 -19 -4 -18 -6 -17 -5 -17 -7 -17 -7 -16 -7 -16 -8 -15 -9 -15 -9 -14 -9 -14 -10 -12 -11 -13 -11 -11 -11 -11 -11 -10 -12 -9 -13 -9 -12 -7 -13 -7 -14 -6 -14 -5 -13 -4 -15 -3 -14 -3 3 -62 17 3 17 4 16 4 16 6 15 7 15 8 15 9 14 10 14 11 14 11 13 13 12 13 12 14 12 15 11 16 10 16 10 17 9 18 9 18 8 19 8 19 6 20 6 20 6 21 4 21 4 22 3 22 3 22 1 23 1 23 0 23 -1 23 0 0zm-353 416l4 -62 0 0 15 1 14 0 14 -1 14 -2 14 -2 14 -4 13 -5 13 -5 13 -7 13 -7 12 -8 12 -9 12 -9 11 -11 11 -11 11 -12 10 -12 10 -13 9 -14 9 -15 8 -15 8 -15 7 -16 6 -17 6 -17 6 -18 5 -18 4 -19 4 -19 3 -19 2 -20 1 -20 45 5 -2 24 -2 23 -4 22 -4 22 -5 21 -6 21 -6 21 -7 20 -8 19 -8 19 -9 18 -10 17 -10 17 -10 16 -12 15 -11 15 -13 13 -12 13 -13 12 -14 11 -14 11 -14 9 -15 8 -15 8 -15 6 -16 6 -15 4 -16 3 -17 2 -16 1 -17 0 -17 -1 0 0zm-299 -491l44 5 0 0 0 20 0 20 0 20 2 19 2 20 2 19 4 18 4 19 4 18 5 17 6 17 7 17 7 16 7 16 8 15 9 15 9 14 9 14 10 12 11 13 10 11 12 11 11 10 12 9 13 9 12 7 13 7 14 6 13 5 14 4 14 3 15 3 -4 62 -16 -3 -17 -4 -16 -4 -16 -6 -15 -7 -15 -8 -15 -9 -15 -10 -13 -10 -14 -12 -13 -13 -12 -13 -13 -14 -11 -15 -11 -16 -10 -16 -10 -17 -10 -17 -8 -19 -8 -19 -8 -19 -6 -20 -7 -20 -5 -21 -5 -21 -3 -22 -4 -22 -2 -22 -1 -23 -1 -23 0 -23 1 -23 0 0zm352 -416l-3 62 0 0 -15 -1 -14 0 -14 1 -14 2 -14 3 -14 3 -13 5 -14 5 -12 7 -13 7 -12 8 -12 9 -12 9 -11 11 -11 11 -11 12 -10 12 -10 13 -9 14 -9 15 -8 15 -8 15 -7 16 -7 17 -6 17 -5 18 -5 18 -4 19 -4 19 -3 19 -2 20 -2 20 -44 -5 2 -24 2 -22 4 -23 4 -22 5 -21 5 -21 7 -21 7 -20 7 -19 9 -19 9 -18 9 -17 11 -17 10 -16 11 -15 12 -15 12 -13 13 -13 13 -12 14 -11 14 -11 14 -9 14 -8 15 -8 16 -6 15 -5 16 -5 16 -3 17 -2 16 -1 17 0 16 1 0 0z"/>
    </g>
   </g>
   <path class="fil3" d="M6152 312l311 0 0 311 -311 0 0 -311zm162 1084l311 0 0 312 -311 0 0 -312zm-2040 -503c40,-40 89,-73 144,-96 53,-22 110,-34 170,-34 40,0 79,6 117,16 38,11 75,27 109,47l0 0c28,17 54,36 77,58 12,11 23,23 34,35 13,-1 26,-2 39,-2 21,-1 42,0 63,1 21,1 43,3 64,6 43,6 86,16 126,30l0 275 0 0 0 328 -312 0 0 1 0 312 -312 0 0 312 312 0 0 -312 312 0 0 -312 311 0 0 -311 0 -65 0 -247 0 -312 -311 0 0 -311 311 0 0 -312 312 0 0 312 -312 0 0 311 312 0 0 312 312 0 0 312 -312 0 -277 0 1 2c17,41 27,85 28,129 23,15 44,32 64,49 31,29 58,60 79,92 28,41 48,85 59,130 11,45 14,92 7,139 -3,19 -7,37 -12,55 26,12 50,26 74,41 47,30 89,66 124,105 47,52 83,111 104,174 21,61 28,127 20,193 -3,19 -7,37 -12,55l0 0c-3,13 -7,26 -12,37l0 1 -4 11c17,21 33,43 48,66 25,39 46,82 63,127 20,52 34,108 42,166 8,57 10,116 5,175 -3,42 -10,83 -20,124 -10,43 -23,82 -38,118 -14,32 -30,64 -49,95 -12,20 -24,38 -37,56 5,29 8,59 8,88 2,42 -2,83 -10,123 -9,46 -24,90 -45,131 -21,40 -47,77 -80,110 -17,18 -36,35 -56,50 -21,16 -42,29 -64,41 -7,3 -13,7 -20,10 2,17 3,34 4,51 0,38 -3,76 -9,113 -9,46 -24,91 -45,133 -21,42 -48,80 -82,114 -29,31 -63,57 -98,79l-1 0c-37,22 -76,38 -117,50 -36,11 -72,17 -108,20 -23,2 -45,3 -68,2 -40,52 -85,97 -134,135 -62,49 -131,86 -202,111 -78,26 -160,38 -242,34 -80,-4 -160,-23 -237,-59 -33,-15 -64,-33 -94,-53 -30,-21 -59,-43 -85,-68 -23,-21 -44,-43 -64,-67 -11,-13 -21,-27 -31,-40l-59 0 0 -77 0 -51 0 0 0 -3049c-1,-5 -2,-10 -4,-16l0 0c-2,-8 -4,-18 -5,-28 -2,-10 -3,-22 -4,-34l0 0c-1,-11 -1,-22 -1,-33 0,-60 12,-117 34,-170l0 0c22,-54 55,-103 96,-144zm946 988l312 0 0 37 29 0 0 312 -312 0 0 -38 -29 0 0 -311z"/>
  </g>
 </g>
</svg>
